# xmcd
#
# Track frame offsets: 
#        150
#        15015
#        26770
#        43147
#        63402
#        78112
#        93592
#        108430
#        122412
#        138095
#        155840
#        170110
#
# Disc length: 2462 seconds
#
# Revision: 3
# Processed by: cddbd v1.5.1PL0 Copyright (c) Steve Scherf et al.
# Submitted via: ExactAudioCopy v0.95a5
#
DISCID=92099c0c
DTITLE=Rosanne Cash - Hits 1979-1989
DYEAR=1989
DGENRE=Country
TTITLE0=Seven Year Ache
TTITLE1=I Don't Want To Spoil The Party
TTITLE2=Hold On
TTITLE3=Blue Moon With Heartache
TTITLE4=My Baby Thinks He's A Train
TTITLE5=No Memories Hangin' Around
TTITLE6=I Don't Know Why You Don't Want Me
TTITLE7=I Wonder
TTITLE8=Never Be You
TTITLE9=The Way We Make A Broken Heart
TTITLE10=Tennessee Flat Top Box
TTITLE11=Black And White
EXTD=
EXTT0=
EXTT1=
EXTT2=
EXTT3=
EXTT4=
EXTT5=
EXTT6=
EXTT7=
EXTT8=
EXTT9=
EXTT10=
EXTT11=
PLAYORDER=
